<?xml version="1.0" encoding="utf-8"?>
<!-- Generator: Adobe Illustrator 27.3.1, SVG Export Plug-In . SVG Version: 6.00 Build 0)  -->
<svg version="1.2" baseProfile="tiny" id="Layer_1" xmlns="http://www.w3.org/2000/svg" xmlns:xlink="http://www.w3.org/1999/xlink"
	 x="0px" y="0px" viewBox="0 0 320 93" overflow="visible" xml:space="preserve">
<g>
	<path fill="#004165" d="M37.3,92.7h-5.2V5.9H0.8V1.3h67.8v4.6H37.3V92.7z"/>
	<path fill="#004165" d="M71.2,79.5c3.7,3.2,7.5,5.4,11.4,6.8c3.9,1.3,8,2,12.3,2c3.1,0,6-0.4,8.6-1.1c2.7-0.8,5-1.9,7-3.5
		c2-1.6,3.6-3.5,4.8-5.9c1.2-2.4,1.8-5.2,1.8-8.5c0-3.1-0.5-5.8-1.5-8c-1-2.2-2.5-4.1-4.3-5.8c-1.8-1.7-4.1-3.1-6.8-4.4
		c-2.7-1.3-5.6-2.5-8.9-3.7c-3.6-1.3-6.9-2.7-9.9-4.1c-3-1.4-5.5-3.1-7.6-5c-2.1-1.9-3.7-4.1-4.9-6.7c-1.2-2.6-1.8-5.6-1.8-9.2
		c0-3.5,0.7-6.6,2.1-9.3c1.4-2.7,3.2-5,5.5-6.8s5-3.2,8-4.1c3-0.9,6.2-1.4,9.5-1.4c4.1,0,8,0.7,11.8,2c3.7,1.3,6.9,3.1,9.3,5.4v5.7
		c-3.3-3-6.6-5.1-10-6.4c-3.4-1.3-7.1-2-11.1-2c-2.8,0-5.4,0.4-7.8,1.1c-2.4,0.8-4.5,1.8-6.3,3.2c-1.8,1.4-3.2,3.2-4.3,5.3
		c-1.1,2.1-1.6,4.6-1.6,7.4c0,2.5,0.4,4.7,1.1,6.6c0.7,1.9,1.9,3.7,3.5,5.3c1.6,1.6,3.7,3.1,6.3,4.4s5.8,2.7,9.6,4
		c3.9,1.4,7.4,2.8,10.5,4.3c3.1,1.5,5.8,3.2,7.9,5.2c2.2,2,3.8,4.4,5,7.1c1.2,2.7,1.8,6,1.8,9.9c0,3.9-0.7,7.3-2.2,10.2
		c-1.4,2.9-3.4,5.3-5.9,7.3c-2.5,2-5.4,3.4-8.7,4.4c-3.3,1-6.8,1.5-10.5,1.5c-4.9,0-9.4-0.7-13.6-2.1c-4.1-1.4-7.5-3.2-10.2-5.4
		V79.5z"/>
	<path fill="#01C4FF" d="M135.7,47c0-6.8,1.2-13,3.7-18.6c2.5-5.6,5.8-10.5,10.1-14.5c4.3-4,9.3-7.2,15-9.4c5.7-2.2,12-3.4,18.6-3.4
		c6.6,0,12.7,1.1,18.5,3.4c5.7,2.2,10.8,5.4,15.1,9.4c4.3,4,7.7,8.9,10.2,14.5c2.5,5.6,3.7,11.8,3.7,18.6c0,6.8-1.2,13-3.7,18.6
		c-2.5,5.6-5.9,10.5-10.2,14.5c-4.3,4-9.3,7.2-15.1,9.4c-5.8,2.2-11.9,3.4-18.5,3.4c-6.7,0-12.9-1.1-18.6-3.4
		c-5.8-2.2-10.8-5.4-15-9.4c-4.3-4-7.6-8.9-10.1-14.5C137,60,135.7,53.8,135.7,47z M214.4,47c0-4.8-0.8-9.2-2.4-13.1
		c-1.6-3.9-3.8-7.2-6.6-10c-2.8-2.8-6.1-4.9-9.9-6.4c-3.8-1.5-7.9-2.3-12.3-2.3c-4.4,0-8.5,0.8-12.3,2.3c-3.8,1.5-7.1,3.7-9.9,6.4
		c-2.8,2.8-5,6.1-6.6,10c-1.6,3.9-2.4,8.2-2.4,13.1c0,4.8,0.8,9.2,2.4,13.1c1.6,3.9,3.8,7.2,6.6,10c2.8,2.8,6.1,4.9,9.9,6.4
		c3.8,1.5,7.9,2.3,12.3,2.3c4.4,0,8.5-0.8,12.3-2.3c3.8-1.5,7.1-3.7,9.9-6.4c2.8-2.8,5-6.1,6.6-10C213.6,56.2,214.4,51.8,214.4,47z"
		/>
	<path fill="#01C4FF" d="M241.8,2.8c3.4-0.5,7.2-0.9,11.5-1.2c4.3-0.3,8.6-0.5,12.8-0.5c9.1,0,17.1,1.1,23.8,3.3
		c6.7,2.2,12.3,5.3,16.8,9.2c4.5,3.9,7.8,8.6,9.9,14.1c2.2,5.4,3.2,11.4,3.2,17.9c0,7.1-1.1,13.6-3.4,19.4
		c-2.3,5.8-5.6,10.8-10.1,15s-10,7.3-16.7,9.6c-6.7,2.2-14.4,3.4-23.3,3.4c-4.6,0-9-0.2-13.2-0.5c-4.2-0.3-8-0.7-11.4-1.2V2.8z
		 M257.5,78.6c1.7,0.3,3.5,0.4,5.2,0.4c1.7,0,3.4,0,5.2,0c5.2,0,10.1-0.7,14.5-2c4.4-1.3,8.2-3.4,11.3-6.1c3.1-2.8,5.6-6.2,7.3-10.5
		c1.7-4.2,2.6-9.2,2.6-14.9c0-9.5-3.1-16.9-9.3-22.1c-6.2-5.2-15.4-7.8-27.5-7.8c-3.1,0-6.2,0.3-9.2,0.9V78.6z"/>
</g>
</svg>
